<svg xmlns="http://www.w3.org/2000/svg" width="232" height="404" viewBox="0 0 232 404" font-family="ui-monospace,monospace">
<rect width="232" height="404" fill="#14161a"/>
<text x="18" y="20" fill="#e8e8e8" font-size="13">5t-output-pulse-10t-period — 14×5×22, 1 populated layers (y ascending, left to right)</text>
<text x="18" y="40" fill="#8b98a5" font-size="10">y=2</text>
<rect x="18" y="44" width="196" height="308" fill="#1c1f24"/>
<rect x="46" y="72" width="13" height="13" fill="#ffd166" opacity="0.92"/>
<text x="52.5" y="82.5" fill="#14161a" font-size="9" text-anchor="middle">L</text>
<rect x="46" y="142" width="13" height="13" fill="#ffd166" opacity="0.92"/>
<text x="52.5" y="152.5" fill="#14161a" font-size="9" text-anchor="middle">L</text>
<rect x="46" y="212" width="13" height="13" fill="#ffd166" opacity="0.92"/>
<text x="52.5" y="222.5" fill="#14161a" font-size="9" text-anchor="middle">L</text>
<rect x="46" y="310" width="13" height="13" fill="#ffd166" opacity="0.92"/>
<text x="52.5" y="320.5" fill="#14161a" font-size="9" text-anchor="middle">L</text>
<rect x="60" y="72" width="13" height="13" fill="#241016"/><line x1="67.0" y1="79.0" x2="74.0" y2="79.0" stroke="#c1121f" stroke-width="2.6" stroke-linecap="round"/><line x1="67.0" y1="79.0" x2="60.0" y2="79.0" stroke="#c1121f" stroke-width="2.6" stroke-linecap="round"/><rect x="64.1" y="76.1" width="5.8" height="5.8" rx="1" fill="#e5383b"/>
<rect x="60" y="142" width="13" height="13" fill="#241016"/><line x1="67.0" y1="149.0" x2="74.0" y2="149.0" stroke="#c1121f" stroke-width="2.6" stroke-linecap="round"/><line x1="67.0" y1="149.0" x2="60.0" y2="149.0" stroke="#c1121f" stroke-width="2.6" stroke-linecap="round"/><rect x="64.1" y="146.1" width="5.8" height="5.8" rx="1" fill="#e5383b"/>
<rect x="60" y="212" width="13" height="13" fill="#241016"/><line x1="67.0" y1="219.0" x2="74.0" y2="219.0" stroke="#c1121f" stroke-width="2.6" stroke-linecap="round"/><line x1="67.0" y1="219.0" x2="60.0" y2="219.0" stroke="#c1121f" stroke-width="2.6" stroke-linecap="round"/><rect x="64.1" y="216.1" width="5.8" height="5.8" rx="1" fill="#e5383b"/>
<rect x="60" y="310" width="13" height="13" fill="#241016"/><line x1="67.0" y1="317.0" x2="74.0" y2="317.0" stroke="#c1121f" stroke-width="2.6" stroke-linecap="round"/><line x1="67.0" y1="317.0" x2="60.0" y2="317.0" stroke="#c1121f" stroke-width="2.6" stroke-linecap="round"/><rect x="64.1" y="314.1" width="5.8" height="5.8" rx="1" fill="#e5383b"/>
<rect x="74" y="72" width="13" height="13" fill="#241016"/><line x1="81.0" y1="79.0" x2="88.0" y2="79.0" stroke="#c1121f" stroke-width="2.6" stroke-linecap="round"/><line x1="81.0" y1="79.0" x2="74.0" y2="79.0" stroke="#c1121f" stroke-width="2.6" stroke-linecap="round"/><rect x="78.1" y="76.1" width="5.8" height="5.8" rx="1" fill="#e5383b"/>
<rect x="74" y="142" width="13" height="13" fill="#241016"/><line x1="81.0" y1="149.0" x2="88.0" y2="149.0" stroke="#c1121f" stroke-width="2.6" stroke-linecap="round"/><line x1="81.0" y1="149.0" x2="74.0" y2="149.0" stroke="#c1121f" stroke-width="2.6" stroke-linecap="round"/><rect x="78.1" y="146.1" width="5.8" height="5.8" rx="1" fill="#e5383b"/>
<rect x="74" y="212" width="13" height="13" fill="#241016"/><line x1="81.0" y1="219.0" x2="88.0" y2="219.0" stroke="#c1121f" stroke-width="2.6" stroke-linecap="round"/><line x1="81.0" y1="219.0" x2="74.0" y2="219.0" stroke="#c1121f" stroke-width="2.6" stroke-linecap="round"/><rect x="78.1" y="216.1" width="5.8" height="5.8" rx="1" fill="#e5383b"/>
<rect x="74" y="310" width="13" height="13" fill="#241016"/><line x1="81.0" y1="317.0" x2="88.0" y2="317.0" stroke="#c1121f" stroke-width="2.6" stroke-linecap="round"/><line x1="81.0" y1="317.0" x2="74.0" y2="317.0" stroke="#c1121f" stroke-width="2.6" stroke-linecap="round"/><rect x="78.1" y="314.1" width="5.8" height="5.8" rx="1" fill="#e5383b"/>
<rect x="88" y="72" width="13" height="13" fill="#241016"/><line x1="95.0" y1="79.0" x2="102.0" y2="79.0" stroke="#c1121f" stroke-width="2.6" stroke-linecap="round"/><line x1="95.0" y1="79.0" x2="88.0" y2="79.0" stroke="#c1121f" stroke-width="2.6" stroke-linecap="round"/><rect x="92.1" y="76.1" width="5.8" height="5.8" rx="1" fill="#e5383b"/>
<rect x="88" y="128" width="13" height="13" fill="#241016"/><line x1="95.0" y1="135.0" x2="95.0" y2="142.0" stroke="#c1121f" stroke-width="2.6" stroke-linecap="round"/><line x1="95.0" y1="135.0" x2="102.0" y2="135.0" stroke="#c1121f" stroke-width="2.6" stroke-linecap="round"/><rect x="92.1" y="132.1" width="5.8" height="5.8" rx="1" fill="#e5383b"/>
<rect x="88" y="142" width="13" height="13" fill="#f4a261" opacity="0.92"/>
<text x="94.5" y="152.5" fill="#14161a" font-size="9" text-anchor="middle">→</text>
<rect x="88" y="212" width="13" height="13" fill="#241016"/><line x1="95.0" y1="219.0" x2="102.0" y2="219.0" stroke="#c1121f" stroke-width="2.6" stroke-linecap="round"/><line x1="95.0" y1="219.0" x2="88.0" y2="219.0" stroke="#c1121f" stroke-width="2.6" stroke-linecap="round"/><rect x="92.1" y="216.1" width="5.8" height="5.8" rx="1" fill="#e5383b"/>
<rect x="88" y="282" width="13" height="13" fill="#2b3038" opacity="0.92"/>
<rect x="88" y="296" width="13" height="13" fill="#dcdcdc" opacity="0.92"/>
<text x="94.5" y="306.5" fill="#14161a" font-size="9" text-anchor="middle">↓</text>
<rect x="88" y="310" width="13" height="13" fill="#2b3038" opacity="0.92"/>
<rect x="102" y="72" width="13" height="13" fill="#241016"/><line x1="109.0" y1="79.0" x2="116.0" y2="79.0" stroke="#c1121f" stroke-width="2.6" stroke-linecap="round"/><line x1="109.0" y1="79.0" x2="102.0" y2="79.0" stroke="#c1121f" stroke-width="2.6" stroke-linecap="round"/><rect x="106.1" y="76.1" width="5.8" height="5.8" rx="1" fill="#e5383b"/>
<rect x="102" y="128" width="13" height="13" fill="#dcdcdc" opacity="0.92"/>
<text x="108.5" y="138.5" fill="#14161a" font-size="9" text-anchor="middle">→</text>
<rect x="102" y="142" width="13" height="13" fill="#241016"/><line x1="109.0" y1="149.0" x2="116.0" y2="149.0" stroke="#c1121f" stroke-width="2.6" stroke-linecap="round"/><line x1="109.0" y1="149.0" x2="102.0" y2="149.0" stroke="#c1121f" stroke-width="2.6" stroke-linecap="round"/><rect x="106.1" y="146.1" width="5.8" height="5.8" rx="1" fill="#e5383b"/>
<rect x="102" y="212" width="13" height="13" fill="#241016"/><line x1="109.0" y1="219.0" x2="116.0" y2="219.0" stroke="#c1121f" stroke-width="2.6" stroke-linecap="round"/><line x1="109.0" y1="219.0" x2="102.0" y2="219.0" stroke="#c1121f" stroke-width="2.6" stroke-linecap="round"/><rect x="106.1" y="216.1" width="5.8" height="5.8" rx="1" fill="#e5383b"/>
<rect x="102" y="268" width="13" height="13" fill="#241016"/><line x1="109.0" y1="275.0" x2="109.0" y2="282.0" stroke="#c1121f" stroke-width="2.6" stroke-linecap="round"/><line x1="109.0" y1="275.0" x2="116.0" y2="275.0" stroke="#c1121f" stroke-width="2.6" stroke-linecap="round"/><rect x="106.1" y="272.1" width="5.8" height="5.8" rx="1" fill="#e5383b"/>
<rect x="102" y="282" width="13" height="13" fill="#f4a261" opacity="0.92"/>
<text x="108.5" y="292.5" fill="#14161a" font-size="9" text-anchor="middle">←</text>
<rect x="102" y="310" width="13" height="13" fill="#dcdcdc" opacity="0.92"/>
<text x="108.5" y="320.5" fill="#14161a" font-size="9" text-anchor="middle">→</text>
<rect x="116" y="72" width="13" height="13" fill="#241016"/><line x1="123.0" y1="79.0" x2="130.0" y2="79.0" stroke="#c1121f" stroke-width="2.6" stroke-linecap="round"/><line x1="123.0" y1="79.0" x2="116.0" y2="79.0" stroke="#c1121f" stroke-width="2.6" stroke-linecap="round"/><rect x="120.1" y="76.1" width="5.8" height="5.8" rx="1" fill="#e5383b"/>
<rect x="116" y="128" width="13" height="13" fill="#241016"/><line x1="123.0" y1="135.0" x2="123.0" y2="142.0" stroke="#c1121f" stroke-width="2.6" stroke-linecap="round"/><line x1="123.0" y1="135.0" x2="130.0" y2="135.0" stroke="#c1121f" stroke-width="2.6" stroke-linecap="round"/><line x1="123.0" y1="135.0" x2="116.0" y2="135.0" stroke="#c1121f" stroke-width="2.6" stroke-linecap="round"/><rect x="120.1" y="132.1" width="5.8" height="5.8" rx="1" fill="#e5383b"/>
<rect x="116" y="142" width="13" height="13" fill="#241016"/><line x1="123.0" y1="149.0" x2="123.0" y2="142.0" stroke="#c1121f" stroke-width="2.6" stroke-linecap="round"/><line x1="123.0" y1="149.0" x2="130.0" y2="149.0" stroke="#c1121f" stroke-width="2.6" stroke-linecap="round"/><line x1="123.0" y1="149.0" x2="116.0" y2="149.0" stroke="#c1121f" stroke-width="2.6" stroke-linecap="round"/><rect x="120.1" y="146.1" width="5.8" height="5.8" rx="1" fill="#e5383b"/>
<rect x="116" y="198" width="13" height="13" fill="#241016"/><line x1="123.0" y1="205.0" x2="123.0" y2="212.0" stroke="#c1121f" stroke-width="2.6" stroke-linecap="round"/><line x1="123.0" y1="205.0" x2="130.0" y2="205.0" stroke="#c1121f" stroke-width="2.6" stroke-linecap="round"/><rect x="120.1" y="202.1" width="5.8" height="5.8" rx="1" fill="#e5383b"/>
<rect x="116" y="212" width="13" height="13" fill="#241016"/><line x1="123.0" y1="219.0" x2="123.0" y2="212.0" stroke="#c1121f" stroke-width="2.6" stroke-linecap="round"/><line x1="123.0" y1="219.0" x2="130.0" y2="219.0" stroke="#c1121f" stroke-width="2.6" stroke-linecap="round"/><line x1="123.0" y1="219.0" x2="116.0" y2="219.0" stroke="#c1121f" stroke-width="2.6" stroke-linecap="round"/><rect x="120.1" y="216.1" width="5.8" height="5.8" rx="1" fill="#e5383b"/>
<rect x="116" y="268" width="13" height="13" fill="#dcdcdc" opacity="0.92"/>
<text x="122.5" y="278.5" fill="#14161a" font-size="9" text-anchor="middle">→</text>
<rect x="116" y="282" width="13" height="13" fill="#2b3038" opacity="0.92"/>
<rect x="116" y="296" width="13" height="13" fill="#dcdcdc" opacity="0.92"/>
<text x="122.5" y="306.5" fill="#14161a" font-size="9" text-anchor="middle">↑</text>
<rect x="116" y="310" width="13" height="13" fill="#2b3038" opacity="0.92"/>
<rect x="130" y="72" width="13" height="13" fill="#241016"/><line x1="137.0" y1="79.0" x2="137.0" y2="72.0" stroke="#c1121f" stroke-width="2.6" stroke-linecap="round"/><line x1="137.0" y1="79.0" x2="144.0" y2="79.0" stroke="#c1121f" stroke-width="2.6" stroke-linecap="round"/><line x1="137.0" y1="79.0" x2="130.0" y2="79.0" stroke="#c1121f" stroke-width="2.6" stroke-linecap="round"/><rect x="134.1" y="76.1" width="5.8" height="5.8" rx="1" fill="#e5383b"/>
<rect x="130" y="128" width="13" height="13" fill="#dcdcdc" opacity="0.92"/>
<text x="136.5" y="138.5" fill="#14161a" font-size="9" text-anchor="middle">←</text>
<rect x="130" y="142" width="13" height="13" fill="#241016"/><line x1="137.0" y1="149.0" x2="144.0" y2="149.0" stroke="#c1121f" stroke-width="2.6" stroke-linecap="round"/><line x1="137.0" y1="149.0" x2="130.0" y2="149.0" stroke="#c1121f" stroke-width="2.6" stroke-linecap="round"/><rect x="134.1" y="146.1" width="5.8" height="5.8" rx="1" fill="#e5383b"/>
<rect x="130" y="198" width="13" height="13" fill="#dcdcdc" opacity="0.92"/>
<text x="136.5" y="208.5" fill="#14161a" font-size="9" text-anchor="middle">←</text>
<rect x="130" y="212" width="13" height="13" fill="#241016"/><line x1="137.0" y1="219.0" x2="144.0" y2="219.0" stroke="#c1121f" stroke-width="2.6" stroke-linecap="round"/><line x1="137.0" y1="219.0" x2="130.0" y2="219.0" stroke="#c1121f" stroke-width="2.6" stroke-linecap="round"/><rect x="134.1" y="216.1" width="5.8" height="5.8" rx="1" fill="#e5383b"/>
<rect x="130" y="268" width="13" height="13" fill="#241016"/><line x1="137.0" y1="275.0" x2="144.0" y2="275.0" stroke="#c1121f" stroke-width="2.6" stroke-linecap="round"/><line x1="137.0" y1="275.0" x2="130.0" y2="275.0" stroke="#c1121f" stroke-width="2.6" stroke-linecap="round"/><rect x="134.1" y="272.1" width="5.8" height="5.8" rx="1" fill="#e5383b"/>
<rect x="130" y="296" width="13" height="13" fill="#241016"/><line x1="137.0" y1="303.0" x2="137.0" y2="310.0" stroke="#c1121f" stroke-width="2.6" stroke-linecap="round"/><line x1="137.0" y1="303.0" x2="144.0" y2="303.0" stroke="#c1121f" stroke-width="2.6" stroke-linecap="round"/><rect x="134.1" y="300.1" width="5.8" height="5.8" rx="1" fill="#e5383b"/>
<rect x="130" y="310" width="13" height="13" fill="#f4a261" opacity="0.92"/>
<text x="136.5" y="320.5" fill="#14161a" font-size="9" text-anchor="middle">→</text>
<rect x="144" y="72" width="13" height="13" fill="#f4a261" opacity="0.92"/>
<text x="150.5" y="82.5" fill="#14161a" font-size="9" text-anchor="middle">→</text>
<rect x="144" y="128" width="13" height="13" fill="#241016"/><line x1="151.0" y1="135.0" x2="151.0" y2="142.0" stroke="#c1121f" stroke-width="2.6" stroke-linecap="round"/><line x1="151.0" y1="135.0" x2="144.0" y2="135.0" stroke="#c1121f" stroke-width="2.6" stroke-linecap="round"/><rect x="148.1" y="132.1" width="5.8" height="5.8" rx="1" fill="#e5383b"/>
<rect x="144" y="142" width="13" height="13" fill="#f4a261" opacity="0.92"/>
<text x="150.5" y="152.5" fill="#14161a" font-size="9" text-anchor="middle">→</text>
<rect x="144" y="198" width="13" height="13" fill="#241016"/><line x1="151.0" y1="205.0" x2="151.0" y2="212.0" stroke="#c1121f" stroke-width="2.6" stroke-linecap="round"/><line x1="151.0" y1="205.0" x2="144.0" y2="205.0" stroke="#c1121f" stroke-width="2.6" stroke-linecap="round"/><rect x="148.1" y="202.1" width="5.8" height="5.8" rx="1" fill="#e5383b"/>
<rect x="144" y="212" width="13" height="13" fill="#f4a261" opacity="0.92"/>
<text x="150.5" y="222.5" fill="#14161a" font-size="9" text-anchor="middle">→</text>
<rect x="144" y="268" width="13" height="13" fill="#241016"/><line x1="151.0" y1="275.0" x2="158.0" y2="275.0" stroke="#c1121f" stroke-width="2.6" stroke-linecap="round"/><line x1="151.0" y1="275.0" x2="144.0" y2="275.0" stroke="#c1121f" stroke-width="2.6" stroke-linecap="round"/><rect x="148.1" y="272.1" width="5.8" height="5.8" rx="1" fill="#e5383b"/>
<rect x="144" y="296" width="13" height="13" fill="#dcdcdc" opacity="0.92"/>
<text x="150.5" y="306.5" fill="#14161a" font-size="9" text-anchor="middle">→</text>
<rect x="144" y="310" width="13" height="13" fill="#241016"/><line x1="151.0" y1="317.0" x2="158.0" y2="317.0" stroke="#c1121f" stroke-width="2.6" stroke-linecap="round"/><line x1="151.0" y1="317.0" x2="144.0" y2="317.0" stroke="#c1121f" stroke-width="2.6" stroke-linecap="round"/><rect x="148.1" y="314.1" width="5.8" height="5.8" rx="1" fill="#e5383b"/>
<rect x="158" y="72" width="13" height="13" fill="#2b3038" opacity="0.92"/>
<rect x="158" y="142" width="13" height="13" fill="#2b3038" opacity="0.92"/>
<rect x="158" y="212" width="13" height="13" fill="#2b3038" opacity="0.92"/>
<rect x="158" y="268" width="13" height="13" fill="#241016"/><line x1="165.0" y1="275.0" x2="165.0" y2="282.0" stroke="#c1121f" stroke-width="2.6" stroke-linecap="round"/><line x1="165.0" y1="275.0" x2="158.0" y2="275.0" stroke="#c1121f" stroke-width="2.6" stroke-linecap="round"/><rect x="162.1" y="272.1" width="5.8" height="5.8" rx="1" fill="#e5383b"/>
<rect x="158" y="282" width="13" height="13" fill="#e63946" opacity="0.92"/>
<text x="164.5" y="292.5" fill="#14161a" font-size="9" text-anchor="middle">↑</text>
<rect x="158" y="296" width="13" height="13" fill="#2b3038" opacity="0.92"/>
<rect x="158" y="310" width="13" height="13" fill="#241016"/><line x1="165.0" y1="317.0" x2="172.0" y2="317.0" stroke="#c1121f" stroke-width="2.6" stroke-linecap="round"/><line x1="165.0" y1="317.0" x2="158.0" y2="317.0" stroke="#c1121f" stroke-width="2.6" stroke-linecap="round"/><rect x="162.1" y="314.1" width="5.8" height="5.8" rx="1" fill="#e5383b"/>
<rect x="172" y="72" width="13" height="13" fill="#8ecae6" opacity="0.92"/>
<text x="178.5" y="82.5" fill="#14161a" font-size="9" text-anchor="middle">v</text>
<rect x="172" y="142" width="13" height="13" fill="#8ecae6" opacity="0.92"/>
<text x="178.5" y="152.5" fill="#14161a" font-size="9" text-anchor="middle">v</text>
<rect x="172" y="212" width="13" height="13" fill="#8ecae6" opacity="0.92"/>
<text x="178.5" y="222.5" fill="#14161a" font-size="9" text-anchor="middle">v</text>
<rect x="172" y="296" width="13" height="13" fill="#8ecae6" opacity="0.92"/>
<text x="178.5" y="306.5" fill="#14161a" font-size="9" text-anchor="middle">v</text>
<text x="18" y="396" fill="#8b98a5" font-size="9">dust: red arms = flat connection · AMBER arms + chevron = wire climbs to the layer above · R repeater · C comparator · T/t torch · L lamp · v lever · x target · arrows on R/C/t = facing · pale blue = glass</text>
</svg>