<svg xmlns="http://www.w3.org/2000/svg" width="190" height="376" viewBox="0 0 190 376" font-family="ui-monospace,monospace">
<rect width="190" height="376" fill="#14161a"/>
<text x="18" y="20" fill="#e8e8e8" font-size="13">on-off — 11×5×20, 1 populated layers (y ascending, left to right)</text>
<text x="18" y="40" fill="#8b98a5" font-size="10">y=2</text>
<rect x="18" y="44" width="154" height="280" fill="#1c1f24"/>
<rect x="46" y="72" width="13" height="13" fill="#c1121f" opacity="0.92"/>
<rect x="46" y="128" width="13" height="13" fill="#c1121f" opacity="0.92"/>
<rect x="46" y="142" width="13" height="13" fill="#f4a261" opacity="0.92"/>
<text x="52.5" y="152.5" fill="#14161a" font-size="9" text-anchor="middle">→</text>
<rect x="46" y="212" width="13" height="13" fill="#c1121f" opacity="0.92"/>
<rect x="46" y="282" width="13" height="13" fill="#2b3038" opacity="0.92"/>
<rect x="60" y="72" width="13" height="13" fill="#c1121f" opacity="0.92"/>
<rect x="60" y="128" width="13" height="13" fill="#dcdcdc" opacity="0.92"/>
<text x="66.5" y="138.5" fill="#14161a" font-size="9" text-anchor="middle">→</text>
<rect x="60" y="142" width="13" height="13" fill="#c1121f" opacity="0.92"/>
<rect x="60" y="212" width="13" height="13" fill="#c1121f" opacity="0.92"/>
<rect x="60" y="268" width="13" height="13" fill="#c1121f" opacity="0.92"/>
<rect x="60" y="282" width="13" height="13" fill="#f4a261" opacity="0.92"/>
<text x="66.5" y="292.5" fill="#14161a" font-size="9" text-anchor="middle">←</text>
<rect x="74" y="72" width="13" height="13" fill="#c1121f" opacity="0.92"/>
<rect x="74" y="128" width="13" height="13" fill="#c1121f" opacity="0.92"/>
<rect x="74" y="142" width="13" height="13" fill="#c1121f" opacity="0.92"/>
<rect x="74" y="198" width="13" height="13" fill="#c1121f" opacity="0.92"/>
<rect x="74" y="212" width="13" height="13" fill="#c1121f" opacity="0.92"/>
<rect x="74" y="268" width="13" height="13" fill="#dcdcdc" opacity="0.92"/>
<text x="80.5" y="278.5" fill="#14161a" font-size="9" text-anchor="middle">→</text>
<rect x="74" y="282" width="13" height="13" fill="#2b3038" opacity="0.92"/>
<rect x="88" y="72" width="13" height="13" fill="#c1121f" opacity="0.92"/>
<rect x="88" y="128" width="13" height="13" fill="#dcdcdc" opacity="0.92"/>
<text x="94.5" y="138.5" fill="#14161a" font-size="9" text-anchor="middle">←</text>
<rect x="88" y="142" width="13" height="13" fill="#c1121f" opacity="0.92"/>
<rect x="88" y="198" width="13" height="13" fill="#dcdcdc" opacity="0.92"/>
<text x="94.5" y="208.5" fill="#14161a" font-size="9" text-anchor="middle">←</text>
<rect x="88" y="212" width="13" height="13" fill="#c1121f" opacity="0.92"/>
<rect x="88" y="268" width="13" height="13" fill="#c1121f" opacity="0.92"/>
<rect x="102" y="72" width="13" height="13" fill="#f4a261" opacity="0.92"/>
<text x="108.5" y="82.5" fill="#14161a" font-size="9" text-anchor="middle">→</text>
<rect x="102" y="128" width="13" height="13" fill="#c1121f" opacity="0.92"/>
<rect x="102" y="142" width="13" height="13" fill="#f4a261" opacity="0.92"/>
<text x="108.5" y="152.5" fill="#14161a" font-size="9" text-anchor="middle">→</text>
<rect x="102" y="198" width="13" height="13" fill="#c1121f" opacity="0.92"/>
<rect x="102" y="212" width="13" height="13" fill="#f4a261" opacity="0.92"/>
<text x="108.5" y="222.5" fill="#14161a" font-size="9" text-anchor="middle">→</text>
<rect x="102" y="268" width="13" height="13" fill="#c1121f" opacity="0.92"/>
<rect x="116" y="72" width="13" height="13" fill="#2b3038" opacity="0.92"/>
<rect x="116" y="142" width="13" height="13" fill="#2b3038" opacity="0.92"/>
<rect x="116" y="212" width="13" height="13" fill="#2b3038" opacity="0.92"/>
<rect x="116" y="268" width="13" height="13" fill="#c1121f" opacity="0.92"/>
<rect x="116" y="282" width="13" height="13" fill="#e63946" opacity="0.92"/>
<text x="122.5" y="292.5" fill="#14161a" font-size="9" text-anchor="middle">↑</text>
<rect x="130" y="72" width="13" height="13" fill="#8ecae6" opacity="0.92"/>
<text x="136.5" y="82.5" fill="#14161a" font-size="9" text-anchor="middle">v</text>
<rect x="130" y="142" width="13" height="13" fill="#8ecae6" opacity="0.92"/>
<text x="136.5" y="152.5" fill="#14161a" font-size="9" text-anchor="middle">v</text>
<rect x="130" y="212" width="13" height="13" fill="#8ecae6" opacity="0.92"/>
<text x="136.5" y="222.5" fill="#14161a" font-size="9" text-anchor="middle">v</text>
<text x="18" y="368" fill="#8b98a5" font-size="9">R repeater · C comparator · T/t torch · L lamp · v lever · x target · arrows = facing · red = dust · pale blue = glass</text>
</svg>