<svg xmlns="http://www.w3.org/2000/svg" width="882" height="354" viewBox="0 0 882 354" font-family="ui-monospace,monospace">
<rect width="882" height="354" fill="#14161a"/>
<text x="18" y="20" fill="#e8e8e8" font-size="13">build-05 — 9×11×8, 7 populated layers (y ascending, left to right)</text>
<text x="18" y="40" fill="#8b98a5" font-size="10">y=2</text>
<rect x="18" y="44" width="126" height="112" fill="#1c1f24"/>
<rect x="74" y="72" width="13" height="13" fill="#c1121f" opacity="0.92"/>
<rect x="74" y="86" width="13" height="13" fill="#c1121f" opacity="0.92"/>
<rect x="74" y="100" width="13" height="13" fill="#e63946" opacity="0.92"/>
<text x="80.5" y="110.5" fill="#14161a" font-size="9" text-anchor="middle">↑</text>
<rect x="74" y="114" width="13" height="13" fill="#2b3038" opacity="0.92"/>
<text x="162" y="40" fill="#8b98a5" font-size="10">y=3</text>
<rect x="162" y="44" width="126" height="112" fill="#1c1f24"/>
<rect x="190" y="72" width="13" height="13" fill="#2b3038" opacity="0.92"/>
<rect x="190" y="86" width="13" height="13" fill="#2b3038" opacity="0.92"/>
<rect x="218" y="72" width="13" height="13" fill="#2b3038" opacity="0.92"/>
<rect x="218" y="86" width="13" height="13" fill="#2b3038" opacity="0.92"/>
<rect x="218" y="100" width="13" height="13" fill="#2b3038" opacity="0.92"/>
<rect x="218" y="114" width="13" height="13" fill="#c1121f" opacity="0.92"/>
<rect x="246" y="72" width="13" height="13" fill="#2b3038" opacity="0.92"/>
<rect x="246" y="86" width="13" height="13" fill="#2b3038" opacity="0.92"/>
<text x="306" y="40" fill="#8b98a5" font-size="10">y=4</text>
<rect x="306" y="44" width="126" height="112" fill="#1c1f24"/>
<rect x="334" y="72" width="13" height="13" fill="#c1121f" opacity="0.92"/>
<rect x="334" y="86" width="13" height="13" fill="#c1121f" opacity="0.92"/>
<rect x="348" y="86" width="13" height="13" fill="#2b3038" opacity="0.92"/>
<rect x="362" y="72" width="13" height="13" fill="#c1121f" opacity="0.92"/>
<rect x="362" y="86" width="13" height="13" fill="#c1121f" opacity="0.92"/>
<rect x="362" y="100" width="13" height="13" fill="#c1121f" opacity="0.92"/>
<rect x="362" y="114" width="13" height="13" fill="#2b3038" opacity="0.92"/>
<rect x="376" y="86" width="13" height="13" fill="#2b3038" opacity="0.92"/>
<rect x="390" y="72" width="13" height="13" fill="#c1121f" opacity="0.92"/>
<rect x="390" y="86" width="13" height="13" fill="#c1121f" opacity="0.92"/>
<text x="450" y="40" fill="#8b98a5" font-size="10">y=5</text>
<rect x="450" y="44" width="126" height="112" fill="#1c1f24"/>
<rect x="478" y="72" width="13" height="13" fill="#2b3038" opacity="0.92"/>
<rect x="478" y="86" width="13" height="13" fill="#2b3038" opacity="0.92"/>
<rect x="478" y="100" width="13" height="13" fill="#2b3038" opacity="0.92"/>
<rect x="492" y="86" width="13" height="13" fill="#c1121f" opacity="0.92"/>
<rect x="492" y="100" width="13" height="13" fill="#e63946" opacity="0.92"/>
<text x="498.5" y="110.5" fill="#14161a" font-size="9" text-anchor="middle">↑</text>
<rect x="492" y="114" width="13" height="13" fill="#2b3038" opacity="0.92"/>
<rect x="506" y="72" width="13" height="13" fill="#2b3038" opacity="0.92"/>
<rect x="506" y="86" width="13" height="13" fill="#2b3038" opacity="0.92"/>
<rect x="506" y="100" width="13" height="13" fill="#e63946" opacity="0.92"/>
<text x="512.5" y="110.5" fill="#14161a" font-size="9" text-anchor="middle">↑</text>
<rect x="506" y="114" width="13" height="13" fill="#2b3038" opacity="0.92"/>
<rect x="520" y="86" width="13" height="13" fill="#c1121f" opacity="0.92"/>
<rect x="520" y="100" width="13" height="13" fill="#e63946" opacity="0.92"/>
<text x="526.5" y="110.5" fill="#14161a" font-size="9" text-anchor="middle">↑</text>
<rect x="520" y="114" width="13" height="13" fill="#2b3038" opacity="0.92"/>
<rect x="534" y="72" width="13" height="13" fill="#2b3038" opacity="0.92"/>
<rect x="534" y="86" width="13" height="13" fill="#2b3038" opacity="0.92"/>
<rect x="534" y="100" width="13" height="13" fill="#2b3038" opacity="0.92"/>
<text x="594" y="40" fill="#8b98a5" font-size="10">y=6</text>
<rect x="594" y="44" width="126" height="112" fill="#1c1f24"/>
<rect x="622" y="72" width="13" height="13" fill="#c1121f" opacity="0.92"/>
<rect x="622" y="86" width="13" height="13" fill="#c1121f" opacity="0.92"/>
<rect x="622" y="100" width="13" height="13" fill="#c1121f" opacity="0.92"/>
<rect x="636" y="86" width="13" height="13" fill="#2b3038" opacity="0.92"/>
<rect x="636" y="100" width="13" height="13" fill="#e63946" opacity="0.92"/>
<text x="642.5" y="110.5" fill="#14161a" font-size="9" text-anchor="middle">↑</text>
<rect x="636" y="114" width="13" height="13" fill="#2b3038" opacity="0.92"/>
<rect x="650" y="72" width="13" height="13" fill="#c1121f" opacity="0.92"/>
<rect x="650" y="86" width="13" height="13" fill="#c1121f" opacity="0.92"/>
<rect x="650" y="100" width="13" height="13" fill="#e63946" opacity="0.92"/>
<text x="656.5" y="110.5" fill="#14161a" font-size="9" text-anchor="middle">↑</text>
<rect x="650" y="114" width="13" height="13" fill="#2b3038" opacity="0.92"/>
<rect x="664" y="86" width="13" height="13" fill="#2b3038" opacity="0.92"/>
<rect x="664" y="100" width="13" height="13" fill="#e63946" opacity="0.92"/>
<text x="670.5" y="110.5" fill="#14161a" font-size="9" text-anchor="middle">↑</text>
<rect x="664" y="114" width="13" height="13" fill="#2b3038" opacity="0.92"/>
<rect x="678" y="72" width="13" height="13" fill="#c1121f" opacity="0.92"/>
<rect x="678" y="86" width="13" height="13" fill="#c1121f" opacity="0.92"/>
<rect x="678" y="100" width="13" height="13" fill="#c1121f" opacity="0.92"/>
<text x="738" y="40" fill="#8b98a5" font-size="10">y=7</text>
<rect x="738" y="44" width="126" height="112" fill="#1c1f24"/>
<rect x="766" y="72" width="13" height="13" fill="#2b3038" opacity="0.92"/>
<rect x="766" y="86" width="13" height="13" fill="#2b3038" opacity="0.92"/>
<rect x="766" y="100" width="13" height="13" fill="#2b3038" opacity="0.92"/>
<rect x="780" y="100" width="13" height="13" fill="#e63946" opacity="0.92"/>
<text x="786.5" y="110.5" fill="#14161a" font-size="9" text-anchor="middle">↑</text>
<rect x="780" y="114" width="13" height="13" fill="#2b3038" opacity="0.92"/>
<rect x="794" y="72" width="13" height="13" fill="#2b3038" opacity="0.92"/>
<rect x="794" y="86" width="13" height="13" fill="#2b3038" opacity="0.92"/>
<rect x="794" y="100" width="13" height="13" fill="#e63946" opacity="0.92"/>
<text x="800.5" y="110.5" fill="#14161a" font-size="9" text-anchor="middle">↑</text>
<rect x="794" y="114" width="13" height="13" fill="#2b3038" opacity="0.92"/>
<rect x="808" y="100" width="13" height="13" fill="#e63946" opacity="0.92"/>
<text x="814.5" y="110.5" fill="#14161a" font-size="9" text-anchor="middle">↑</text>
<rect x="808" y="114" width="13" height="13" fill="#2b3038" opacity="0.92"/>
<rect x="822" y="72" width="13" height="13" fill="#2b3038" opacity="0.92"/>
<rect x="822" y="86" width="13" height="13" fill="#2b3038" opacity="0.92"/>
<rect x="822" y="100" width="13" height="13" fill="#2b3038" opacity="0.92"/>
<text x="18" y="186" fill="#8b98a5" font-size="10">y=8</text>
<rect x="18" y="190" width="126" height="112" fill="#1c1f24"/>
<rect x="46" y="218" width="13" height="13" fill="#c1121f" opacity="0.92"/>
<rect x="46" y="232" width="13" height="13" fill="#c1121f" opacity="0.92"/>
<rect x="46" y="246" width="13" height="13" fill="#c1121f" opacity="0.92"/>
<rect x="60" y="246" width="13" height="13" fill="#2b3038" opacity="0.92"/>
<rect x="74" y="218" width="13" height="13" fill="#c1121f" opacity="0.92"/>
<rect x="74" y="232" width="13" height="13" fill="#c1121f" opacity="0.92"/>
<rect x="74" y="246" width="13" height="13" fill="#2b3038" opacity="0.92"/>
<rect x="88" y="246" width="13" height="13" fill="#2b3038" opacity="0.92"/>
<rect x="102" y="218" width="13" height="13" fill="#c1121f" opacity="0.92"/>
<rect x="102" y="232" width="13" height="13" fill="#c1121f" opacity="0.92"/>
<rect x="102" y="246" width="13" height="13" fill="#c1121f" opacity="0.92"/>
<text x="18" y="346" fill="#8b98a5" font-size="9">R repeater · C comparator · T/t torch · L lamp · v lever · x target · arrows = facing · red = dust · pale blue = glass</text>
</svg>