<svg xmlns="http://www.w3.org/2000/svg" width="966" height="416" viewBox="0 0 966 416" font-family="ui-monospace,monospace">
<rect width="966" height="416" fill="#14161a"/>
<text x="18" y="20" fill="#e8e8e8" font-size="13">build-15 — 10×20×6, 16 populated layers (y ascending, left to right)</text>
<text x="18" y="40" fill="#8b98a5" font-size="10">y=2</text>
<rect x="18" y="44" width="140" height="84" fill="#1c1f24"/>
<rect x="46" y="72" width="13" height="13" fill="#ffd166" opacity="0.92"/>
<text x="52.5" y="82.5" fill="#14161a" font-size="9" text-anchor="middle">L</text>
<rect x="60" y="72" width="13" height="13" fill="#e63946" opacity="0.92"/>
<text x="66.5" y="82.5" fill="#14161a" font-size="9" text-anchor="middle">←</text>
<rect x="74" y="72" width="13" height="13" fill="#e9c46a" opacity="0.92"/>
<text x="80.5" y="82.5" fill="#14161a" font-size="9" text-anchor="middle">x</text>
<rect x="74" y="86" width="13" height="13" fill="#e63946" opacity="0.92"/>
<text x="80.5" y="96.5" fill="#14161a" font-size="9" text-anchor="middle">↓</text>
<rect x="88" y="72" width="13" height="13" fill="#241016"/><line x1="95.0" y1="79.0" x2="95.0" y2="86.0" stroke="#ffb703" stroke-width="3.2" stroke-linecap="round"/><polygon points="95.0,86.0 92.4,84.5 97.6,84.5" fill="#ffb703"/><line x1="95.0" y1="79.0" x2="102.0" y2="79.0" stroke="#c1121f" stroke-width="2.6" stroke-linecap="round"/><line x1="95.0" y1="79.0" x2="88.0" y2="79.0" stroke="#c1121f" stroke-width="2.6" stroke-linecap="round"/><rect x="92.1" y="76.1" width="5.8" height="5.8" rx="1" fill="#e5383b"/>
<rect x="88" y="86" width="13" height="13" fill="#cfe8ef" opacity="0.92"/>
<rect x="102" y="72" width="13" height="13" fill="#f4a261" opacity="0.92"/>
<text x="108.5" y="82.5" fill="#14161a" font-size="9" text-anchor="middle">→</text>
<rect x="116" y="72" width="13" height="13" fill="#a68a64" opacity="0.92"/>
<text x="122.5" y="82.5" fill="#14161a" font-size="9" text-anchor="middle">b</text>
<text x="176" y="40" fill="#8b98a5" font-size="10">y=3</text>
<rect x="176" y="44" width="140" height="84" fill="#1c1f24"/>
<rect x="204" y="86" width="13" height="13" fill="#ffd166" opacity="0.92"/>
<text x="210.5" y="96.5" fill="#14161a" font-size="9" text-anchor="middle">L</text>
<rect x="218" y="86" width="13" height="13" fill="#e63946" opacity="0.92"/>
<text x="224.5" y="96.5" fill="#14161a" font-size="9" text-anchor="middle">←</text>
<rect x="232" y="72" width="13" height="13" fill="#e63946" opacity="0.92"/>
<text x="238.5" y="82.5" fill="#14161a" font-size="9" text-anchor="middle">↑</text>
<rect x="232" y="86" width="13" height="13" fill="#e9c46a" opacity="0.92"/>
<text x="238.5" y="96.5" fill="#14161a" font-size="9" text-anchor="middle">x</text>
<rect x="246" y="72" width="13" height="13" fill="#cfe8ef" opacity="0.92"/>
<rect x="246" y="86" width="13" height="13" fill="#241016"/><line x1="253.0" y1="93.0" x2="253.0" y2="86.0" stroke="#ffb703" stroke-width="3.2" stroke-linecap="round"/><polygon points="253.0,86.0 255.6,87.5 250.4,87.5" fill="#ffb703"/><line x1="253.0" y1="93.0" x2="246.0" y2="93.0" stroke="#c1121f" stroke-width="2.6" stroke-linecap="round"/><rect x="250.1" y="90.1" width="5.8" height="5.8" rx="1" fill="#e5383b"/>
<text x="334" y="40" fill="#8b98a5" font-size="10">y=4</text>
<rect x="334" y="44" width="140" height="84" fill="#1c1f24"/>
<rect x="362" y="72" width="13" height="13" fill="#ffd166" opacity="0.92"/>
<text x="368.5" y="82.5" fill="#14161a" font-size="9" text-anchor="middle">L</text>
<rect x="376" y="72" width="13" height="13" fill="#e63946" opacity="0.92"/>
<text x="382.5" y="82.5" fill="#14161a" font-size="9" text-anchor="middle">←</text>
<rect x="390" y="72" width="13" height="13" fill="#e9c46a" opacity="0.92"/>
<text x="396.5" y="82.5" fill="#14161a" font-size="9" text-anchor="middle">x</text>
<rect x="390" y="86" width="13" height="13" fill="#e63946" opacity="0.92"/>
<text x="396.5" y="96.5" fill="#14161a" font-size="9" text-anchor="middle">↓</text>
<rect x="404" y="72" width="13" height="13" fill="#241016"/><line x1="411.0" y1="79.0" x2="411.0" y2="86.0" stroke="#ffb703" stroke-width="3.2" stroke-linecap="round"/><polygon points="411.0,86.0 408.4,84.5 413.6,84.5" fill="#ffb703"/><line x1="411.0" y1="79.0" x2="404.0" y2="79.0" stroke="#c1121f" stroke-width="2.6" stroke-linecap="round"/><rect x="408.1" y="76.1" width="5.8" height="5.8" rx="1" fill="#e5383b"/>
<rect x="404" y="86" width="13" height="13" fill="#cfe8ef" opacity="0.92"/>
<text x="492" y="40" fill="#8b98a5" font-size="10">y=5</text>
<rect x="492" y="44" width="140" height="84" fill="#1c1f24"/>
<rect x="520" y="86" width="13" height="13" fill="#ffd166" opacity="0.92"/>
<text x="526.5" y="96.5" fill="#14161a" font-size="9" text-anchor="middle">L</text>
<rect x="534" y="86" width="13" height="13" fill="#e63946" opacity="0.92"/>
<text x="540.5" y="96.5" fill="#14161a" font-size="9" text-anchor="middle">←</text>
<rect x="548" y="72" width="13" height="13" fill="#e63946" opacity="0.92"/>
<text x="554.5" y="82.5" fill="#14161a" font-size="9" text-anchor="middle">↑</text>
<rect x="548" y="86" width="13" height="13" fill="#e9c46a" opacity="0.92"/>
<text x="554.5" y="96.5" fill="#14161a" font-size="9" text-anchor="middle">x</text>
<rect x="562" y="72" width="13" height="13" fill="#cfe8ef" opacity="0.92"/>
<rect x="562" y="86" width="13" height="13" fill="#241016"/><line x1="569.0" y1="93.0" x2="569.0" y2="86.0" stroke="#ffb703" stroke-width="3.2" stroke-linecap="round"/><polygon points="569.0,86.0 571.6,87.5 566.4,87.5" fill="#ffb703"/><line x1="569.0" y1="93.0" x2="562.0" y2="93.0" stroke="#c1121f" stroke-width="2.6" stroke-linecap="round"/><rect x="566.1" y="90.1" width="5.8" height="5.8" rx="1" fill="#e5383b"/>
<text x="650" y="40" fill="#8b98a5" font-size="10">y=6</text>
<rect x="650" y="44" width="140" height="84" fill="#1c1f24"/>
<rect x="678" y="72" width="13" height="13" fill="#ffd166" opacity="0.92"/>
<text x="684.5" y="82.5" fill="#14161a" font-size="9" text-anchor="middle">L</text>
<rect x="692" y="72" width="13" height="13" fill="#e63946" opacity="0.92"/>
<text x="698.5" y="82.5" fill="#14161a" font-size="9" text-anchor="middle">←</text>
<rect x="706" y="72" width="13" height="13" fill="#e9c46a" opacity="0.92"/>
<text x="712.5" y="82.5" fill="#14161a" font-size="9" text-anchor="middle">x</text>
<rect x="706" y="86" width="13" height="13" fill="#e63946" opacity="0.92"/>
<text x="712.5" y="96.5" fill="#14161a" font-size="9" text-anchor="middle">↓</text>
<rect x="720" y="72" width="13" height="13" fill="#241016"/><line x1="727.0" y1="79.0" x2="727.0" y2="86.0" stroke="#ffb703" stroke-width="3.2" stroke-linecap="round"/><polygon points="727.0,86.0 724.4,84.5 729.6,84.5" fill="#ffb703"/><line x1="727.0" y1="79.0" x2="720.0" y2="79.0" stroke="#c1121f" stroke-width="2.6" stroke-linecap="round"/><rect x="724.1" y="76.1" width="5.8" height="5.8" rx="1" fill="#e5383b"/>
<rect x="720" y="86" width="13" height="13" fill="#cfe8ef" opacity="0.92"/>
<text x="808" y="40" fill="#8b98a5" font-size="10">y=7</text>
<rect x="808" y="44" width="140" height="84" fill="#1c1f24"/>
<rect x="836" y="86" width="13" height="13" fill="#ffd166" opacity="0.92"/>
<text x="842.5" y="96.5" fill="#14161a" font-size="9" text-anchor="middle">L</text>
<rect x="850" y="86" width="13" height="13" fill="#e63946" opacity="0.92"/>
<text x="856.5" y="96.5" fill="#14161a" font-size="9" text-anchor="middle">←</text>
<rect x="864" y="72" width="13" height="13" fill="#e63946" opacity="0.92"/>
<text x="870.5" y="82.5" fill="#14161a" font-size="9" text-anchor="middle">↑</text>
<rect x="864" y="86" width="13" height="13" fill="#e9c46a" opacity="0.92"/>
<text x="870.5" y="96.5" fill="#14161a" font-size="9" text-anchor="middle">x</text>
<rect x="878" y="72" width="13" height="13" fill="#cfe8ef" opacity="0.92"/>
<rect x="878" y="86" width="13" height="13" fill="#241016"/><line x1="885.0" y1="93.0" x2="885.0" y2="86.0" stroke="#ffb703" stroke-width="3.2" stroke-linecap="round"/><polygon points="885.0,86.0 887.6,87.5 882.4,87.5" fill="#ffb703"/><line x1="885.0" y1="93.0" x2="878.0" y2="93.0" stroke="#c1121f" stroke-width="2.6" stroke-linecap="round"/><rect x="882.1" y="90.1" width="5.8" height="5.8" rx="1" fill="#e5383b"/>
<text x="18" y="158" fill="#8b98a5" font-size="10">y=8</text>
<rect x="18" y="162" width="140" height="84" fill="#1c1f24"/>
<rect x="46" y="190" width="13" height="13" fill="#ffd166" opacity="0.92"/>
<text x="52.5" y="200.5" fill="#14161a" font-size="9" text-anchor="middle">L</text>
<rect x="60" y="190" width="13" height="13" fill="#e63946" opacity="0.92"/>
<text x="66.5" y="200.5" fill="#14161a" font-size="9" text-anchor="middle">←</text>
<rect x="74" y="190" width="13" height="13" fill="#e9c46a" opacity="0.92"/>
<text x="80.5" y="200.5" fill="#14161a" font-size="9" text-anchor="middle">x</text>
<rect x="74" y="204" width="13" height="13" fill="#e63946" opacity="0.92"/>
<text x="80.5" y="214.5" fill="#14161a" font-size="9" text-anchor="middle">↓</text>
<rect x="88" y="190" width="13" height="13" fill="#241016"/><line x1="95.0" y1="197.0" x2="95.0" y2="204.0" stroke="#ffb703" stroke-width="3.2" stroke-linecap="round"/><polygon points="95.0,204.0 92.4,202.5 97.6,202.5" fill="#ffb703"/><line x1="95.0" y1="197.0" x2="88.0" y2="197.0" stroke="#c1121f" stroke-width="2.6" stroke-linecap="round"/><rect x="92.1" y="194.1" width="5.8" height="5.8" rx="1" fill="#e5383b"/>
<rect x="88" y="204" width="13" height="13" fill="#cfe8ef" opacity="0.92"/>
<text x="176" y="158" fill="#8b98a5" font-size="10">y=9</text>
<rect x="176" y="162" width="140" height="84" fill="#1c1f24"/>
<rect x="204" y="204" width="13" height="13" fill="#ffd166" opacity="0.92"/>
<text x="210.5" y="214.5" fill="#14161a" font-size="9" text-anchor="middle">L</text>
<rect x="218" y="204" width="13" height="13" fill="#e63946" opacity="0.92"/>
<text x="224.5" y="214.5" fill="#14161a" font-size="9" text-anchor="middle">←</text>
<rect x="232" y="190" width="13" height="13" fill="#e63946" opacity="0.92"/>
<text x="238.5" y="200.5" fill="#14161a" font-size="9" text-anchor="middle">↑</text>
<rect x="232" y="204" width="13" height="13" fill="#e9c46a" opacity="0.92"/>
<text x="238.5" y="214.5" fill="#14161a" font-size="9" text-anchor="middle">x</text>
<rect x="246" y="190" width="13" height="13" fill="#cfe8ef" opacity="0.92"/>
<rect x="246" y="204" width="13" height="13" fill="#241016"/><line x1="253.0" y1="211.0" x2="253.0" y2="204.0" stroke="#ffb703" stroke-width="3.2" stroke-linecap="round"/><polygon points="253.0,204.0 255.6,205.5 250.4,205.5" fill="#ffb703"/><line x1="253.0" y1="211.0" x2="246.0" y2="211.0" stroke="#c1121f" stroke-width="2.6" stroke-linecap="round"/><rect x="250.1" y="208.1" width="5.8" height="5.8" rx="1" fill="#e5383b"/>
<text x="334" y="158" fill="#8b98a5" font-size="10">y=10</text>
<rect x="334" y="162" width="140" height="84" fill="#1c1f24"/>
<rect x="362" y="190" width="13" height="13" fill="#ffd166" opacity="0.92"/>
<text x="368.5" y="200.5" fill="#14161a" font-size="9" text-anchor="middle">L</text>
<rect x="376" y="190" width="13" height="13" fill="#e63946" opacity="0.92"/>
<text x="382.5" y="200.5" fill="#14161a" font-size="9" text-anchor="middle">←</text>
<rect x="390" y="190" width="13" height="13" fill="#e9c46a" opacity="0.92"/>
<text x="396.5" y="200.5" fill="#14161a" font-size="9" text-anchor="middle">x</text>
<rect x="390" y="204" width="13" height="13" fill="#e63946" opacity="0.92"/>
<text x="396.5" y="214.5" fill="#14161a" font-size="9" text-anchor="middle">↓</text>
<rect x="404" y="190" width="13" height="13" fill="#241016"/><line x1="411.0" y1="197.0" x2="411.0" y2="204.0" stroke="#ffb703" stroke-width="3.2" stroke-linecap="round"/><polygon points="411.0,204.0 408.4,202.5 413.6,202.5" fill="#ffb703"/><line x1="411.0" y1="197.0" x2="404.0" y2="197.0" stroke="#c1121f" stroke-width="2.6" stroke-linecap="round"/><rect x="408.1" y="194.1" width="5.8" height="5.8" rx="1" fill="#e5383b"/>
<rect x="404" y="204" width="13" height="13" fill="#cfe8ef" opacity="0.92"/>
<text x="492" y="158" fill="#8b98a5" font-size="10">y=11</text>
<rect x="492" y="162" width="140" height="84" fill="#1c1f24"/>
<rect x="520" y="204" width="13" height="13" fill="#ffd166" opacity="0.92"/>
<text x="526.5" y="214.5" fill="#14161a" font-size="9" text-anchor="middle">L</text>
<rect x="534" y="204" width="13" height="13" fill="#e63946" opacity="0.92"/>
<text x="540.5" y="214.5" fill="#14161a" font-size="9" text-anchor="middle">←</text>
<rect x="548" y="190" width="13" height="13" fill="#e63946" opacity="0.92"/>
<text x="554.5" y="200.5" fill="#14161a" font-size="9" text-anchor="middle">↑</text>
<rect x="548" y="204" width="13" height="13" fill="#e9c46a" opacity="0.92"/>
<text x="554.5" y="214.5" fill="#14161a" font-size="9" text-anchor="middle">x</text>
<rect x="562" y="190" width="13" height="13" fill="#cfe8ef" opacity="0.92"/>
<rect x="562" y="204" width="13" height="13" fill="#241016"/><line x1="569.0" y1="211.0" x2="569.0" y2="204.0" stroke="#ffb703" stroke-width="3.2" stroke-linecap="round"/><polygon points="569.0,204.0 571.6,205.5 566.4,205.5" fill="#ffb703"/><line x1="569.0" y1="211.0" x2="562.0" y2="211.0" stroke="#c1121f" stroke-width="2.6" stroke-linecap="round"/><rect x="566.1" y="208.1" width="5.8" height="5.8" rx="1" fill="#e5383b"/>
<text x="650" y="158" fill="#8b98a5" font-size="10">y=12</text>
<rect x="650" y="162" width="140" height="84" fill="#1c1f24"/>
<rect x="678" y="190" width="13" height="13" fill="#ffd166" opacity="0.92"/>
<text x="684.5" y="200.5" fill="#14161a" font-size="9" text-anchor="middle">L</text>
<rect x="692" y="190" width="13" height="13" fill="#e63946" opacity="0.92"/>
<text x="698.5" y="200.5" fill="#14161a" font-size="9" text-anchor="middle">←</text>
<rect x="706" y="190" width="13" height="13" fill="#e9c46a" opacity="0.92"/>
<text x="712.5" y="200.5" fill="#14161a" font-size="9" text-anchor="middle">x</text>
<rect x="706" y="204" width="13" height="13" fill="#e63946" opacity="0.92"/>
<text x="712.5" y="214.5" fill="#14161a" font-size="9" text-anchor="middle">↓</text>
<rect x="720" y="190" width="13" height="13" fill="#241016"/><line x1="727.0" y1="197.0" x2="727.0" y2="204.0" stroke="#ffb703" stroke-width="3.2" stroke-linecap="round"/><polygon points="727.0,204.0 724.4,202.5 729.6,202.5" fill="#ffb703"/><line x1="727.0" y1="197.0" x2="720.0" y2="197.0" stroke="#c1121f" stroke-width="2.6" stroke-linecap="round"/><rect x="724.1" y="194.1" width="5.8" height="5.8" rx="1" fill="#e5383b"/>
<rect x="720" y="204" width="13" height="13" fill="#cfe8ef" opacity="0.92"/>
<text x="808" y="158" fill="#8b98a5" font-size="10">y=13</text>
<rect x="808" y="162" width="140" height="84" fill="#1c1f24"/>
<rect x="836" y="204" width="13" height="13" fill="#ffd166" opacity="0.92"/>
<text x="842.5" y="214.5" fill="#14161a" font-size="9" text-anchor="middle">L</text>
<rect x="850" y="204" width="13" height="13" fill="#e63946" opacity="0.92"/>
<text x="856.5" y="214.5" fill="#14161a" font-size="9" text-anchor="middle">←</text>
<rect x="864" y="190" width="13" height="13" fill="#e63946" opacity="0.92"/>
<text x="870.5" y="200.5" fill="#14161a" font-size="9" text-anchor="middle">↑</text>
<rect x="864" y="204" width="13" height="13" fill="#e9c46a" opacity="0.92"/>
<text x="870.5" y="214.5" fill="#14161a" font-size="9" text-anchor="middle">x</text>
<rect x="878" y="190" width="13" height="13" fill="#cfe8ef" opacity="0.92"/>
<rect x="878" y="204" width="13" height="13" fill="#241016"/><line x1="885.0" y1="211.0" x2="885.0" y2="204.0" stroke="#ffb703" stroke-width="3.2" stroke-linecap="round"/><polygon points="885.0,204.0 887.6,205.5 882.4,205.5" fill="#ffb703"/><line x1="885.0" y1="211.0" x2="878.0" y2="211.0" stroke="#c1121f" stroke-width="2.6" stroke-linecap="round"/><rect x="882.1" y="208.1" width="5.8" height="5.8" rx="1" fill="#e5383b"/>
<text x="18" y="276" fill="#8b98a5" font-size="10">y=14</text>
<rect x="18" y="280" width="140" height="84" fill="#1c1f24"/>
<rect x="46" y="308" width="13" height="13" fill="#ffd166" opacity="0.92"/>
<text x="52.5" y="318.5" fill="#14161a" font-size="9" text-anchor="middle">L</text>
<rect x="60" y="308" width="13" height="13" fill="#e63946" opacity="0.92"/>
<text x="66.5" y="318.5" fill="#14161a" font-size="9" text-anchor="middle">←</text>
<rect x="74" y="308" width="13" height="13" fill="#e9c46a" opacity="0.92"/>
<text x="80.5" y="318.5" fill="#14161a" font-size="9" text-anchor="middle">x</text>
<rect x="74" y="322" width="13" height="13" fill="#e63946" opacity="0.92"/>
<text x="80.5" y="332.5" fill="#14161a" font-size="9" text-anchor="middle">↓</text>
<rect x="88" y="308" width="13" height="13" fill="#241016"/><line x1="95.0" y1="315.0" x2="95.0" y2="322.0" stroke="#ffb703" stroke-width="3.2" stroke-linecap="round"/><polygon points="95.0,322.0 92.4,320.5 97.6,320.5" fill="#ffb703"/><line x1="95.0" y1="315.0" x2="88.0" y2="315.0" stroke="#c1121f" stroke-width="2.6" stroke-linecap="round"/><rect x="92.1" y="312.1" width="5.8" height="5.8" rx="1" fill="#e5383b"/>
<rect x="88" y="322" width="13" height="13" fill="#cfe8ef" opacity="0.92"/>
<text x="176" y="276" fill="#8b98a5" font-size="10">y=15</text>
<rect x="176" y="280" width="140" height="84" fill="#1c1f24"/>
<rect x="204" y="322" width="13" height="13" fill="#ffd166" opacity="0.92"/>
<text x="210.5" y="332.5" fill="#14161a" font-size="9" text-anchor="middle">L</text>
<rect x="218" y="322" width="13" height="13" fill="#e63946" opacity="0.92"/>
<text x="224.5" y="332.5" fill="#14161a" font-size="9" text-anchor="middle">←</text>
<rect x="232" y="308" width="13" height="13" fill="#e63946" opacity="0.92"/>
<text x="238.5" y="318.5" fill="#14161a" font-size="9" text-anchor="middle">↑</text>
<rect x="232" y="322" width="13" height="13" fill="#e9c46a" opacity="0.92"/>
<text x="238.5" y="332.5" fill="#14161a" font-size="9" text-anchor="middle">x</text>
<rect x="246" y="308" width="13" height="13" fill="#cfe8ef" opacity="0.92"/>
<rect x="246" y="322" width="13" height="13" fill="#241016"/><line x1="253.0" y1="329.0" x2="253.0" y2="322.0" stroke="#ffb703" stroke-width="3.2" stroke-linecap="round"/><polygon points="253.0,322.0 255.6,323.5 250.4,323.5" fill="#ffb703"/><line x1="253.0" y1="329.0" x2="246.0" y2="329.0" stroke="#c1121f" stroke-width="2.6" stroke-linecap="round"/><rect x="250.1" y="326.1" width="5.8" height="5.8" rx="1" fill="#e5383b"/>
<text x="334" y="276" fill="#8b98a5" font-size="10">y=16</text>
<rect x="334" y="280" width="140" height="84" fill="#1c1f24"/>
<rect x="362" y="308" width="13" height="13" fill="#ffd166" opacity="0.92"/>
<text x="368.5" y="318.5" fill="#14161a" font-size="9" text-anchor="middle">L</text>
<rect x="376" y="308" width="13" height="13" fill="#e63946" opacity="0.92"/>
<text x="382.5" y="318.5" fill="#14161a" font-size="9" text-anchor="middle">←</text>
<rect x="390" y="308" width="13" height="13" fill="#e9c46a" opacity="0.92"/>
<text x="396.5" y="318.5" fill="#14161a" font-size="9" text-anchor="middle">x</text>
<rect x="390" y="322" width="13" height="13" fill="#e63946" opacity="0.92"/>
<text x="396.5" y="332.5" fill="#14161a" font-size="9" text-anchor="middle">↓</text>
<rect x="404" y="308" width="13" height="13" fill="#241016"/><line x1="411.0" y1="315.0" x2="411.0" y2="322.0" stroke="#ffb703" stroke-width="3.2" stroke-linecap="round"/><polygon points="411.0,322.0 408.4,320.5 413.6,320.5" fill="#ffb703"/><line x1="411.0" y1="315.0" x2="404.0" y2="315.0" stroke="#c1121f" stroke-width="2.6" stroke-linecap="round"/><rect x="408.1" y="312.1" width="5.8" height="5.8" rx="1" fill="#e5383b"/>
<rect x="404" y="322" width="13" height="13" fill="#cfe8ef" opacity="0.92"/>
<text x="492" y="276" fill="#8b98a5" font-size="10">y=17</text>
<rect x="492" y="280" width="140" height="84" fill="#1c1f24"/>
<rect x="520" y="322" width="13" height="13" fill="#ffd166" opacity="0.92"/>
<text x="526.5" y="332.5" fill="#14161a" font-size="9" text-anchor="middle">L</text>
<rect x="534" y="322" width="13" height="13" fill="#e63946" opacity="0.92"/>
<text x="540.5" y="332.5" fill="#14161a" font-size="9" text-anchor="middle">←</text>
<rect x="548" y="322" width="13" height="13" fill="#e9c46a" opacity="0.92"/>
<text x="554.5" y="332.5" fill="#14161a" font-size="9" text-anchor="middle">x</text>
<rect x="562" y="322" width="13" height="13" fill="#241016"/><line x1="569.0" y1="329.0" x2="569.0" y2="322.0" stroke="#c1121f" stroke-width="2.6" stroke-linecap="round"/><line x1="569.0" y1="329.0" x2="562.0" y2="329.0" stroke="#c1121f" stroke-width="2.6" stroke-linecap="round"/><rect x="566.1" y="326.1" width="5.8" height="5.8" rx="1" fill="#e5383b"/>
<text x="18" y="408" fill="#8b98a5" font-size="9">dust: red arms = flat connection · AMBER arms + chevron = wire climbs to the layer above · R repeater · C comparator · T/t torch · L lamp · v lever · x target · arrows on R/C/t = facing · pale blue = glass</text>
</svg>