<svg xmlns="http://www.w3.org/2000/svg" width="948" height="320" viewBox="0 0 948 320" font-family="ui-monospace,monospace">
<rect width="948" height="320" fill="#14161a"/>
<text x="18" y="20" fill="#e8e8e8" font-size="13">build-07 — 12×9×16, 5 populated layers (y ascending, left to right)</text>
<text x="18" y="40" fill="#8b98a5" font-size="10">y=2</text>
<rect x="18" y="44" width="168" height="224" fill="#1c1f24"/>
<rect x="46" y="72" width="13" height="13" fill="#ffd166" opacity="0.92"/>
<text x="52.5" y="82.5" fill="#14161a" font-size="9" text-anchor="middle">L</text>
<rect x="46" y="86" width="13" height="13" fill="#c1121f" opacity="0.92"/>
<rect x="46" y="100" width="13" height="13" fill="#c1121f" opacity="0.92"/>
<rect x="46" y="114" width="13" height="13" fill="#c1121f" opacity="0.92"/>
<rect x="46" y="128" width="13" height="13" fill="#c1121f" opacity="0.92"/>
<rect x="46" y="142" width="13" height="13" fill="#c1121f" opacity="0.92"/>
<rect x="46" y="156" width="13" height="13" fill="#c1121f" opacity="0.92"/>
<rect x="46" y="170" width="13" height="13" fill="#c1121f" opacity="0.92"/>
<rect x="46" y="184" width="13" height="13" fill="#c1121f" opacity="0.92"/>
<rect x="46" y="198" width="13" height="13" fill="#c1121f" opacity="0.92"/>
<rect x="74" y="72" width="13" height="13" fill="#ffd166" opacity="0.92"/>
<text x="80.5" y="82.5" fill="#14161a" font-size="9" text-anchor="middle">L</text>
<rect x="74" y="86" width="13" height="13" fill="#c1121f" opacity="0.92"/>
<rect x="74" y="100" width="13" height="13" fill="#c1121f" opacity="0.92"/>
<rect x="74" y="114" width="13" height="13" fill="#c1121f" opacity="0.92"/>
<rect x="74" y="128" width="13" height="13" fill="#c1121f" opacity="0.92"/>
<rect x="74" y="142" width="13" height="13" fill="#c1121f" opacity="0.92"/>
<rect x="74" y="156" width="13" height="13" fill="#c1121f" opacity="0.92"/>
<rect x="74" y="170" width="13" height="13" fill="#c1121f" opacity="0.92"/>
<rect x="74" y="184" width="13" height="13" fill="#c1121f" opacity="0.92"/>
<rect x="74" y="198" width="13" height="13" fill="#c1121f" opacity="0.92"/>
<rect x="102" y="72" width="13" height="13" fill="#ffd166" opacity="0.92"/>
<text x="108.5" y="82.5" fill="#14161a" font-size="9" text-anchor="middle">L</text>
<rect x="102" y="86" width="13" height="13" fill="#c1121f" opacity="0.92"/>
<rect x="102" y="100" width="13" height="13" fill="#c1121f" opacity="0.92"/>
<rect x="102" y="114" width="13" height="13" fill="#c1121f" opacity="0.92"/>
<rect x="102" y="128" width="13" height="13" fill="#c1121f" opacity="0.92"/>
<rect x="102" y="142" width="13" height="13" fill="#c1121f" opacity="0.92"/>
<rect x="102" y="156" width="13" height="13" fill="#c1121f" opacity="0.92"/>
<rect x="102" y="170" width="13" height="13" fill="#c1121f" opacity="0.92"/>
<rect x="102" y="184" width="13" height="13" fill="#c1121f" opacity="0.92"/>
<rect x="102" y="198" width="13" height="13" fill="#c1121f" opacity="0.92"/>
<rect x="130" y="72" width="13" height="13" fill="#ffd166" opacity="0.92"/>
<text x="136.5" y="82.5" fill="#14161a" font-size="9" text-anchor="middle">L</text>
<rect x="130" y="86" width="13" height="13" fill="#c1121f" opacity="0.92"/>
<rect x="130" y="100" width="13" height="13" fill="#c1121f" opacity="0.92"/>
<rect x="130" y="114" width="13" height="13" fill="#c1121f" opacity="0.92"/>
<rect x="130" y="128" width="13" height="13" fill="#c1121f" opacity="0.92"/>
<rect x="130" y="142" width="13" height="13" fill="#c1121f" opacity="0.92"/>
<rect x="130" y="156" width="13" height="13" fill="#c1121f" opacity="0.92"/>
<rect x="130" y="170" width="13" height="13" fill="#c1121f" opacity="0.92"/>
<rect x="130" y="184" width="13" height="13" fill="#c1121f" opacity="0.92"/>
<rect x="130" y="198" width="13" height="13" fill="#c1121f" opacity="0.92"/>
<text x="204" y="40" fill="#8b98a5" font-size="10">y=3</text>
<rect x="204" y="44" width="168" height="224" fill="#1c1f24"/>
<rect x="232" y="100" width="13" height="13" fill="#e63946" opacity="0.92"/>
<text x="238.5" y="110.5" fill="#14161a" font-size="9" text-anchor="middle">↑</text>
<rect x="232" y="114" width="13" height="13" fill="#2b3038" opacity="0.92"/>
<rect x="232" y="128" width="13" height="13" fill="#e63946" opacity="0.92"/>
<text x="238.5" y="138.5" fill="#14161a" font-size="9" text-anchor="middle">↑</text>
<rect x="232" y="142" width="13" height="13" fill="#2b3038" opacity="0.92"/>
<rect x="232" y="156" width="13" height="13" fill="#e63946" opacity="0.92"/>
<text x="238.5" y="166.5" fill="#14161a" font-size="9" text-anchor="middle">↑</text>
<rect x="232" y="170" width="13" height="13" fill="#2b3038" opacity="0.92"/>
<rect x="232" y="184" width="13" height="13" fill="#e63946" opacity="0.92"/>
<text x="238.5" y="194.5" fill="#14161a" font-size="9" text-anchor="middle">↑</text>
<rect x="232" y="198" width="13" height="13" fill="#2b3038" opacity="0.92"/>
<rect x="246" y="114" width="13" height="13" fill="#2b3038" opacity="0.92"/>
<rect x="246" y="142" width="13" height="13" fill="#2b3038" opacity="0.92"/>
<rect x="246" y="170" width="13" height="13" fill="#2b3038" opacity="0.92"/>
<rect x="246" y="198" width="13" height="13" fill="#2b3038" opacity="0.92"/>
<rect x="260" y="100" width="13" height="13" fill="#e63946" opacity="0.92"/>
<text x="266.5" y="110.5" fill="#14161a" font-size="9" text-anchor="middle">↑</text>
<rect x="260" y="114" width="13" height="13" fill="#2b3038" opacity="0.92"/>
<rect x="260" y="128" width="13" height="13" fill="#e63946" opacity="0.92"/>
<text x="266.5" y="138.5" fill="#14161a" font-size="9" text-anchor="middle">↑</text>
<rect x="260" y="142" width="13" height="13" fill="#2b3038" opacity="0.92"/>
<rect x="260" y="156" width="13" height="13" fill="#e63946" opacity="0.92"/>
<text x="266.5" y="166.5" fill="#14161a" font-size="9" text-anchor="middle">↑</text>
<rect x="260" y="170" width="13" height="13" fill="#2b3038" opacity="0.92"/>
<rect x="260" y="184" width="13" height="13" fill="#e63946" opacity="0.92"/>
<text x="266.5" y="194.5" fill="#14161a" font-size="9" text-anchor="middle">↑</text>
<rect x="260" y="198" width="13" height="13" fill="#2b3038" opacity="0.92"/>
<rect x="274" y="114" width="13" height="13" fill="#2b3038" opacity="0.92"/>
<rect x="274" y="142" width="13" height="13" fill="#2b3038" opacity="0.92"/>
<rect x="274" y="170" width="13" height="13" fill="#2b3038" opacity="0.92"/>
<rect x="274" y="198" width="13" height="13" fill="#2b3038" opacity="0.92"/>
<rect x="288" y="100" width="13" height="13" fill="#e63946" opacity="0.92"/>
<text x="294.5" y="110.5" fill="#14161a" font-size="9" text-anchor="middle">↑</text>
<rect x="288" y="114" width="13" height="13" fill="#2b3038" opacity="0.92"/>
<rect x="288" y="128" width="13" height="13" fill="#e63946" opacity="0.92"/>
<text x="294.5" y="138.5" fill="#14161a" font-size="9" text-anchor="middle">↑</text>
<rect x="288" y="142" width="13" height="13" fill="#2b3038" opacity="0.92"/>
<rect x="288" y="156" width="13" height="13" fill="#e63946" opacity="0.92"/>
<text x="294.5" y="166.5" fill="#14161a" font-size="9" text-anchor="middle">↑</text>
<rect x="288" y="170" width="13" height="13" fill="#2b3038" opacity="0.92"/>
<rect x="288" y="184" width="13" height="13" fill="#e63946" opacity="0.92"/>
<text x="294.5" y="194.5" fill="#14161a" font-size="9" text-anchor="middle">↑</text>
<rect x="288" y="198" width="13" height="13" fill="#2b3038" opacity="0.92"/>
<rect x="302" y="114" width="13" height="13" fill="#2b3038" opacity="0.92"/>
<rect x="302" y="142" width="13" height="13" fill="#2b3038" opacity="0.92"/>
<rect x="302" y="170" width="13" height="13" fill="#2b3038" opacity="0.92"/>
<rect x="302" y="198" width="13" height="13" fill="#2b3038" opacity="0.92"/>
<rect x="316" y="100" width="13" height="13" fill="#e63946" opacity="0.92"/>
<text x="322.5" y="110.5" fill="#14161a" font-size="9" text-anchor="middle">↑</text>
<rect x="316" y="114" width="13" height="13" fill="#2b3038" opacity="0.92"/>
<rect x="316" y="128" width="13" height="13" fill="#e63946" opacity="0.92"/>
<text x="322.5" y="138.5" fill="#14161a" font-size="9" text-anchor="middle">↑</text>
<rect x="316" y="142" width="13" height="13" fill="#2b3038" opacity="0.92"/>
<rect x="316" y="156" width="13" height="13" fill="#e63946" opacity="0.92"/>
<text x="322.5" y="166.5" fill="#14161a" font-size="9" text-anchor="middle">↑</text>
<rect x="316" y="170" width="13" height="13" fill="#2b3038" opacity="0.92"/>
<rect x="316" y="184" width="13" height="13" fill="#e63946" opacity="0.92"/>
<text x="322.5" y="194.5" fill="#14161a" font-size="9" text-anchor="middle">↑</text>
<rect x="316" y="198" width="13" height="13" fill="#2b3038" opacity="0.92"/>
<rect x="330" y="114" width="13" height="13" fill="#2b3038" opacity="0.92"/>
<rect x="330" y="142" width="13" height="13" fill="#2b3038" opacity="0.92"/>
<rect x="330" y="170" width="13" height="13" fill="#2b3038" opacity="0.92"/>
<rect x="330" y="198" width="13" height="13" fill="#2b3038" opacity="0.92"/>
<text x="390" y="40" fill="#8b98a5" font-size="10">y=4</text>
<rect x="390" y="44" width="168" height="224" fill="#1c1f24"/>
<rect x="418" y="114" width="13" height="13" fill="#c1121f" opacity="0.92"/>
<rect x="418" y="142" width="13" height="13" fill="#c1121f" opacity="0.92"/>
<rect x="418" y="170" width="13" height="13" fill="#c1121f" opacity="0.92"/>
<rect x="418" y="198" width="13" height="13" fill="#c1121f" opacity="0.92"/>
<rect x="432" y="114" width="13" height="13" fill="#c1121f" opacity="0.92"/>
<rect x="432" y="142" width="13" height="13" fill="#c1121f" opacity="0.92"/>
<rect x="432" y="170" width="13" height="13" fill="#c1121f" opacity="0.92"/>
<rect x="432" y="198" width="13" height="13" fill="#c1121f" opacity="0.92"/>
<rect x="446" y="114" width="13" height="13" fill="#c1121f" opacity="0.92"/>
<rect x="446" y="142" width="13" height="13" fill="#c1121f" opacity="0.92"/>
<rect x="446" y="170" width="13" height="13" fill="#c1121f" opacity="0.92"/>
<rect x="446" y="198" width="13" height="13" fill="#c1121f" opacity="0.92"/>
<rect x="460" y="114" width="13" height="13" fill="#c1121f" opacity="0.92"/>
<rect x="460" y="142" width="13" height="13" fill="#c1121f" opacity="0.92"/>
<rect x="460" y="170" width="13" height="13" fill="#c1121f" opacity="0.92"/>
<rect x="460" y="198" width="13" height="13" fill="#c1121f" opacity="0.92"/>
<rect x="474" y="114" width="13" height="13" fill="#c1121f" opacity="0.92"/>
<rect x="474" y="142" width="13" height="13" fill="#c1121f" opacity="0.92"/>
<rect x="474" y="170" width="13" height="13" fill="#c1121f" opacity="0.92"/>
<rect x="474" y="198" width="13" height="13" fill="#c1121f" opacity="0.92"/>
<rect x="488" y="114" width="13" height="13" fill="#c1121f" opacity="0.92"/>
<rect x="488" y="142" width="13" height="13" fill="#c1121f" opacity="0.92"/>
<rect x="488" y="170" width="13" height="13" fill="#c1121f" opacity="0.92"/>
<rect x="488" y="198" width="13" height="13" fill="#c1121f" opacity="0.92"/>
<rect x="502" y="114" width="13" height="13" fill="#c1121f" opacity="0.92"/>
<rect x="502" y="142" width="13" height="13" fill="#c1121f" opacity="0.92"/>
<rect x="502" y="170" width="13" height="13" fill="#c1121f" opacity="0.92"/>
<rect x="502" y="198" width="13" height="13" fill="#c1121f" opacity="0.92"/>
<rect x="516" y="114" width="13" height="13" fill="#c1121f" opacity="0.92"/>
<rect x="516" y="142" width="13" height="13" fill="#c1121f" opacity="0.92"/>
<rect x="516" y="170" width="13" height="13" fill="#c1121f" opacity="0.92"/>
<rect x="516" y="198" width="13" height="13" fill="#c1121f" opacity="0.92"/>
<text x="576" y="40" fill="#8b98a5" font-size="10">y=5</text>
<rect x="576" y="44" width="168" height="224" fill="#1c1f24"/>
<rect x="604" y="198" width="13" height="13" fill="#2b3038" opacity="0.92"/>
<rect x="618" y="198" width="13" height="13" fill="#e63946" opacity="0.92"/>
<text x="624.5" y="208.5" fill="#14161a" font-size="9" text-anchor="middle">→</text>
<rect x="632" y="170" width="13" height="13" fill="#2b3038" opacity="0.92"/>
<rect x="632" y="184" width="13" height="13" fill="#2b3038" opacity="0.92"/>
<rect x="632" y="198" width="13" height="13" fill="#2b3038" opacity="0.92"/>
<rect x="646" y="170" width="13" height="13" fill="#e63946" opacity="0.92"/>
<text x="652.5" y="180.5" fill="#14161a" font-size="9" text-anchor="middle">→</text>
<rect x="660" y="142" width="13" height="13" fill="#2b3038" opacity="0.92"/>
<rect x="660" y="156" width="13" height="13" fill="#2b3038" opacity="0.92"/>
<rect x="660" y="170" width="13" height="13" fill="#2b3038" opacity="0.92"/>
<rect x="660" y="184" width="13" height="13" fill="#2b3038" opacity="0.92"/>
<rect x="660" y="198" width="13" height="13" fill="#2b3038" opacity="0.92"/>
<rect x="674" y="142" width="13" height="13" fill="#e63946" opacity="0.92"/>
<text x="680.5" y="152.5" fill="#14161a" font-size="9" text-anchor="middle">→</text>
<rect x="688" y="114" width="13" height="13" fill="#2b3038" opacity="0.92"/>
<rect x="688" y="128" width="13" height="13" fill="#2b3038" opacity="0.92"/>
<rect x="688" y="142" width="13" height="13" fill="#2b3038" opacity="0.92"/>
<rect x="688" y="156" width="13" height="13" fill="#2b3038" opacity="0.92"/>
<rect x="688" y="170" width="13" height="13" fill="#2b3038" opacity="0.92"/>
<rect x="688" y="184" width="13" height="13" fill="#2b3038" opacity="0.92"/>
<rect x="688" y="198" width="13" height="13" fill="#2b3038" opacity="0.92"/>
<rect x="702" y="114" width="13" height="13" fill="#e63946" opacity="0.92"/>
<text x="708.5" y="124.5" fill="#14161a" font-size="9" text-anchor="middle">→</text>
<text x="762" y="40" fill="#8b98a5" font-size="10">y=6</text>
<rect x="762" y="44" width="168" height="224" fill="#1c1f24"/>
<rect x="790" y="198" width="13" height="13" fill="#c1121f" opacity="0.92"/>
<rect x="790" y="212" width="13" height="13" fill="#ffd166" opacity="0.92"/>
<text x="796.5" y="222.5" fill="#14161a" font-size="9" text-anchor="middle">L</text>
<rect x="790" y="226" width="13" height="13" fill="#8ecae6" opacity="0.92"/>
<text x="796.5" y="236.5" fill="#14161a" font-size="9" text-anchor="middle">v</text>
<rect x="818" y="170" width="13" height="13" fill="#c1121f" opacity="0.92"/>
<rect x="818" y="184" width="13" height="13" fill="#c1121f" opacity="0.92"/>
<rect x="818" y="198" width="13" height="13" fill="#c1121f" opacity="0.92"/>
<rect x="818" y="212" width="13" height="13" fill="#ffd166" opacity="0.92"/>
<text x="824.5" y="222.5" fill="#14161a" font-size="9" text-anchor="middle">L</text>
<rect x="818" y="226" width="13" height="13" fill="#8ecae6" opacity="0.92"/>
<text x="824.5" y="236.5" fill="#14161a" font-size="9" text-anchor="middle">v</text>
<rect x="846" y="142" width="13" height="13" fill="#c1121f" opacity="0.92"/>
<rect x="846" y="156" width="13" height="13" fill="#c1121f" opacity="0.92"/>
<rect x="846" y="170" width="13" height="13" fill="#c1121f" opacity="0.92"/>
<rect x="846" y="184" width="13" height="13" fill="#c1121f" opacity="0.92"/>
<rect x="846" y="198" width="13" height="13" fill="#c1121f" opacity="0.92"/>
<rect x="846" y="212" width="13" height="13" fill="#ffd166" opacity="0.92"/>
<text x="852.5" y="222.5" fill="#14161a" font-size="9" text-anchor="middle">L</text>
<rect x="846" y="226" width="13" height="13" fill="#8ecae6" opacity="0.92"/>
<text x="852.5" y="236.5" fill="#14161a" font-size="9" text-anchor="middle">v</text>
<rect x="874" y="114" width="13" height="13" fill="#c1121f" opacity="0.92"/>
<rect x="874" y="128" width="13" height="13" fill="#c1121f" opacity="0.92"/>
<rect x="874" y="142" width="13" height="13" fill="#c1121f" opacity="0.92"/>
<rect x="874" y="156" width="13" height="13" fill="#c1121f" opacity="0.92"/>
<rect x="874" y="170" width="13" height="13" fill="#c1121f" opacity="0.92"/>
<rect x="874" y="184" width="13" height="13" fill="#c1121f" opacity="0.92"/>
<rect x="874" y="198" width="13" height="13" fill="#c1121f" opacity="0.92"/>
<rect x="874" y="212" width="13" height="13" fill="#ffd166" opacity="0.92"/>
<text x="880.5" y="222.5" fill="#14161a" font-size="9" text-anchor="middle">L</text>
<rect x="874" y="226" width="13" height="13" fill="#8ecae6" opacity="0.92"/>
<text x="880.5" y="236.5" fill="#14161a" font-size="9" text-anchor="middle">v</text>
<text x="18" y="312" fill="#8b98a5" font-size="9">R repeater · C comparator · T/t torch · L lamp · v lever · x target · arrows = facing · red = dust · pale blue = glass</text>
</svg>